<?xml version="1.0" encoding="UTF-8" ?>
<!DOCTYPE svg PUBLIC "-//W3C//DTD SVG 1.1//EN" "http://www.w3.org/Graphics/SVG/1.1/DTD/svg11.dtd">
<svg width="3292pt" height="399pt" viewBox="0 0 3292 399" version="1.1" xmlns="http://www.w3.org/2000/svg">
<g>
<path fill="#606060" opacity="1.00" d=" M 181.03 1.14 C 218.84 -2.33 257.64 5.13 291.28 22.81 C 319.19 37.38 343.58 58.64 361.74 84.37 C 383.49 114.84 396.20 151.62 398.03 189.01 C 399.83 222.88 392.83 257.22 377.71 287.60 C 355.16 333.45 314.28 369.84 266.10 386.87 C 242.41 395.22 217.11 399.20 192.00 398.31 C 154.03 396.79 116.49 384.46 85.41 362.51 C 55.33 341.58 31.27 312.14 16.70 278.53 C 2.20 245.24 -2.80 207.93 2.20 171.99 C 7.22 134.72 23.26 99.07 47.67 70.48 C 80.82 31.14 129.76 5.60 181.03 1.14 M 176.53 21.76 C 167.18 22.95 157.93 24.94 148.88 27.58 C 110.37 38.71 76.08 63.46 53.04 96.21 C 32.24 125.47 20.71 161.17 20.35 197.05 C 19.88 228.50 27.94 260.04 43.48 287.39 C 61.74 319.76 90.35 346.19 124.10 361.79 C 152.03 374.76 183.36 380.31 214.06 377.74 C 243.57 375.33 272.46 365.46 297.20 349.18 C 322.31 332.76 343.22 309.94 357.32 283.45 C 370.51 258.78 377.72 230.96 378.27 202.99 C 378.96 171.18 370.97 139.20 355.28 111.51 C 336.86 78.75 307.86 52.05 273.64 36.48 C 243.49 22.64 209.43 17.53 176.53 21.76 Z" />
<path fill="#606060" opacity="1.00" d=" M 114.70 88.96 C 115.33 78.09 125.01 68.66 135.90 68.36 C 165.61 68.34 195.33 68.35 225.05 68.35 C 236.32 68.59 246.10 78.77 246.26 89.97 C 246.28 120.20 246.27 150.44 246.27 180.68 C 253.39 180.85 261.08 179.72 267.55 183.46 C 273.98 186.74 277.32 194.00 277.61 200.98 C 278.03 218.67 276.26 236.32 275.93 254.00 C 275.82 262.40 276.51 271.39 281.43 278.53 C 286.05 285.28 295.22 288.34 302.99 285.87 C 308.45 284.39 312.59 279.67 314.23 274.37 C 316.72 266.87 315.92 258.75 314.36 251.14 C 311.70 239.32 307.78 227.81 305.56 215.89 C 302.93 203.77 301.53 191.37 301.71 178.96 C 296.56 178.56 290.76 180.17 286.21 177.02 C 281.87 173.99 277.61 169.59 277.42 163.98 C 277.37 156.36 277.32 148.73 277.45 141.10 C 277.45 138.57 279.04 136.49 280.54 134.61 C 280.22 128.00 280.41 121.38 280.38 114.77 C 273.86 108.14 267.00 101.86 260.48 95.23 C 259.23 94.30 259.32 92.73 259.27 91.33 C 261.35 89.22 263.37 85.32 266.95 86.99 C 275.14 94.11 282.48 102.24 291.06 108.88 C 297.91 115.76 304.71 122.68 311.14 129.96 C 313.31 132.42 315.09 135.53 314.94 138.93 C 314.91 150.32 315.00 161.72 314.89 173.12 C 314.90 175.50 313.29 177.34 311.63 178.85 C 310.97 200.34 316.64 221.29 322.19 241.85 C 325.44 253.70 327.40 266.63 323.22 278.51 C 320.77 285.83 315.20 292.24 307.86 294.90 C 296.72 298.94 282.97 296.07 275.27 286.81 C 268.26 278.63 266.25 267.49 266.19 257.02 C 266.24 239.66 267.70 222.33 268.05 204.98 C 267.97 200.85 266.88 196.10 263.10 193.80 C 258.02 190.78 251.87 192.34 246.28 191.99 C 246.25 227.45 246.29 262.91 246.26 298.37 C 250.11 298.46 253.96 298.26 257.81 298.46 C 260.97 298.73 263.58 301.71 263.32 304.90 C 263.32 309.25 263.35 313.60 263.31 317.96 C 263.51 320.89 261.01 323.84 258.06 323.95 C 207.33 324.08 156.61 323.86 105.89 324.06 C 102.39 324.79 98.19 322.85 97.74 319.02 C 97.55 314.34 97.71 309.65 97.66 304.96 C 97.32 301.79 99.89 298.68 103.08 298.47 C 106.90 298.25 110.73 298.45 114.55 298.39 C 114.84 228.58 114.54 158.77 114.70 88.96 M 137.46 92.73 C 134.30 94.08 132.14 97.49 132.33 100.94 C 132.34 117.98 132.33 135.02 132.34 152.06 C 132.07 156.70 136.27 161.00 140.94 160.73 C 167.31 160.73 193.69 160.73 220.06 160.74 C 224.76 161.00 228.92 156.69 228.69 152.04 C 228.71 135.02 228.69 118.01 228.71 101.00 C 229.01 96.28 224.85 91.88 220.10 92.01 C 194.40 91.92 168.70 92.02 143.00 91.96 C 141.13 91.94 139.21 92.01 137.46 92.73 M 285.33 141.39 L 284.79 142.01 C 284.46 149.33 284.57 156.68 284.72 164.00 C 286.19 168.53 290.87 172.51 295.88 172.02 C 297.61 172.20 300.40 172.22 300.65 169.94 C 300.75 164.35 300.79 158.74 300.60 153.15 C 298.84 149.00 294.40 146.80 291.35 143.65 C 289.77 142.38 287.41 139.37 285.33 141.39 M 181.08 177.02 C 171.82 179.42 163.94 186.59 160.84 195.67 C 157.82 204.11 159.11 213.22 158.83 222.00 C 154.72 221.99 150.60 221.99 146.49 222.01 C 146.50 227.35 146.50 232.70 146.50 238.05 C 150.61 238.05 154.72 238.04 158.83 238.05 C 158.66 244.54 159.64 251.52 156.42 257.47 C 154.18 262.02 149.55 264.76 144.83 266.14 C 144.82 271.65 144.83 277.15 144.83 282.66 C 168.50 282.68 192.16 282.66 215.83 282.67 C 215.84 276.78 215.83 270.89 215.84 265.00 C 200.34 265.00 184.85 264.97 169.35 265.02 C 171.93 263.04 174.47 260.91 176.23 258.14 C 180.33 252.30 180.32 244.89 180.16 238.05 C 186.72 238.04 193.28 238.05 199.83 238.05 C 199.84 232.70 199.83 227.35 199.83 222.00 C 193.28 221.99 186.72 222.00 180.16 221.99 C 180.36 215.94 179.68 209.81 180.78 203.83 C 181.56 199.40 184.54 195.10 189.08 193.97 C 196.02 192.19 203.38 194.46 209.18 198.39 C 209.16 191.93 209.17 185.48 209.17 179.03 C 200.35 175.39 190.33 174.67 181.08 177.02 Z" />
<path fill="#606060" opacity="1.00" d=" M 1598.89 100.90 C 1619.72 97.95 1641.89 100.89 1660.19 111.68 C 1671.78 118.43 1681.37 128.50 1687.55 140.41 C 1692.12 149.11 1694.80 158.70 1696.13 168.41 C 1682.87 168.41 1669.61 168.42 1656.35 168.41 C 1654.83 158.58 1649.64 149.29 1641.61 143.34 C 1632.67 136.51 1620.99 134.23 1609.96 135.10 C 1600.13 135.73 1590.54 139.64 1583.21 146.22 C 1571.24 157.07 1565.94 173.38 1564.77 189.11 C 1563.65 205.03 1564.67 221.73 1571.76 236.29 C 1576.74 246.80 1585.51 255.71 1596.58 259.68 C 1611.41 264.95 1629.28 263.64 1642.02 253.88 C 1649.86 247.97 1654.80 238.80 1656.48 229.21 C 1669.74 229.20 1683.00 229.21 1696.26 229.21 C 1694.19 247.85 1684.55 265.28 1670.60 277.69 C 1657.75 289.05 1641.09 295.80 1624.05 297.30 C 1604.11 299.24 1583.20 295.74 1566.05 285.01 C 1548.30 274.25 1535.64 256.24 1529.61 236.55 C 1523.91 217.62 1523.26 197.40 1525.93 177.89 C 1528.44 159.42 1535.92 141.47 1548.43 127.53 C 1561.29 112.91 1579.69 103.60 1598.89 100.90 Z" />
<path fill="#606060" opacity="1.00" d=" M 453.83 102.39 C 495.91 102.36 538.00 102.39 580.08 102.38 C 580.08 113.30 580.08 124.23 580.08 135.16 C 551.10 135.17 522.11 135.16 493.13 135.17 C 493.12 153.10 493.13 171.03 493.12 188.96 C 519.28 189.01 545.43 189.03 571.59 189.09 C 571.57 199.80 571.60 210.50 571.57 221.21 C 545.42 221.20 519.28 221.21 493.13 221.21 C 493.12 245.89 493.13 270.57 493.12 295.25 C 480.03 295.25 466.93 295.25 453.84 295.25 C 453.83 230.96 453.84 166.68 453.83 102.39 Z" />
<path fill="#606060" opacity="1.00" d=" M 608.74 102.39 C 621.83 102.36 634.91 102.39 647.99 102.37 C 648.03 143.25 647.97 184.13 648.02 225.01 C 648.01 236.12 652.71 247.42 661.54 254.37 C 669.14 260.69 679.27 263.26 689.03 262.93 C 698.08 262.88 707.29 260.14 714.33 254.31 C 723.09 247.35 727.80 236.08 727.74 225.01 C 727.75 184.13 727.75 143.26 727.74 102.39 C 740.88 102.37 754.02 102.37 767.17 102.38 C 767.14 144.59 767.20 186.79 767.14 228.99 C 767.09 244.18 762.17 259.53 752.31 271.21 C 739.99 286.24 721.14 294.81 702.09 297.08 C 685.66 298.93 668.57 297.96 653.02 291.99 C 638.85 286.58 626.05 276.91 618.24 263.78 C 611.71 253.08 608.73 240.46 608.76 227.99 C 608.73 186.12 608.76 144.25 608.74 102.39 Z" />
<path fill="#606060" opacity="1.00" d=" M 801.66 102.39 C 844.47 102.36 887.27 102.38 930.08 102.38 C 930.08 113.30 930.08 124.23 930.08 135.16 C 900.37 135.17 870.67 135.16 840.96 135.17 C 840.95 150.68 840.95 166.19 840.96 181.71 C 868.40 181.71 895.84 181.71 923.28 181.71 C 923.35 192.46 923.36 203.21 923.42 213.96 C 895.93 213.92 868.45 213.87 840.96 213.83 C 840.95 230.04 840.95 246.25 840.96 262.46 C 870.76 262.46 900.57 262.45 930.38 262.46 C 930.37 273.39 930.37 284.32 930.37 295.25 C 887.47 295.25 844.57 295.25 801.67 295.25 C 801.66 230.96 801.67 166.67 801.66 102.39 Z" />
<path fill="#606060" opacity="1.00" d=" M 961.83 102.38 C 974.94 102.41 988.06 102.29 1001.17 102.45 C 1001.07 155.78 1001.15 209.12 1001.13 262.46 C 1028.69 262.46 1056.25 262.46 1083.82 262.45 C 1083.89 273.39 1083.91 284.32 1083.96 295.25 C 1043.25 295.25 1002.54 295.25 961.84 295.25 C 961.83 230.96 961.84 166.67 961.83 102.38 Z" />
<path fill="#606060" opacity="1.00" d=" M 1111.05 102.37 C 1136.61 102.42 1162.17 102.30 1187.73 102.43 C 1203.49 102.59 1219.74 106.67 1232.17 116.75 C 1245.61 127.35 1253.22 144.14 1254.28 161.03 C 1255.84 179.26 1251.13 198.75 1238.26 212.24 C 1229.95 221.04 1218.83 226.96 1207.10 229.76 C 1199.24 231.66 1191.12 232.26 1183.05 232.21 C 1172.14 232.21 1161.24 232.20 1150.33 232.21 C 1150.33 253.22 1150.33 274.24 1150.33 295.25 C 1137.23 295.25 1124.14 295.25 1111.04 295.25 C 1111.04 230.96 1111.04 166.66 1111.05 102.37 M 1150.33 135.05 C 1150.35 156.81 1150.32 178.58 1150.34 200.34 C 1160.54 200.30 1170.73 200.39 1180.93 200.30 C 1189.24 200.11 1197.87 197.92 1204.18 192.26 C 1211.28 186.04 1214.16 176.24 1213.96 167.04 C 1214.00 157.93 1210.89 148.22 1203.56 142.39 C 1197.00 137.04 1188.35 135.18 1180.06 135.06 C 1170.15 135.01 1160.24 135.04 1150.33 135.05 Z" />
<path fill="#606060" opacity="1.00" d=" M 1282.13 102.37 C 1300.74 102.38 1319.35 102.37 1337.96 102.38 C 1356.32 102.37 1375.66 101.18 1392.66 109.45 C 1408.35 116.46 1420.11 131.16 1423.73 147.94 C 1427.24 164.44 1426.25 182.68 1417.68 197.54 C 1411.86 207.73 1402.36 215.50 1391.61 220.03 C 1405.22 245.11 1418.85 270.17 1432.46 295.25 C 1417.95 295.26 1403.44 295.25 1388.93 295.25 C 1376.70 272.29 1364.46 249.35 1352.25 226.38 C 1341.97 226.36 1331.69 226.38 1321.42 226.38 C 1321.41 249.33 1321.42 272.29 1321.41 295.25 C 1308.32 295.25 1295.22 295.25 1282.13 295.25 C 1282.13 230.96 1282.12 166.67 1282.13 102.37 M 1321.41 135.05 C 1321.42 154.82 1321.40 174.60 1321.42 194.38 C 1331.92 194.32 1342.43 194.50 1352.93 194.27 C 1361.75 194.05 1371.26 192.13 1377.75 185.71 C 1384.14 179.30 1385.68 169.64 1384.84 160.96 C 1384.28 153.89 1381.35 146.72 1375.67 142.25 C 1368.78 136.72 1359.65 135.22 1351.06 135.06 C 1341.17 135.02 1331.29 135.04 1321.41 135.05 Z" />
<path fill="#606060" opacity="1.00" d=" M 1455.46 102.38 C 1468.55 102.37 1481.65 102.38 1494.75 102.38 C 1494.75 166.67 1494.74 230.96 1494.75 295.25 C 1481.65 295.25 1468.56 295.25 1455.47 295.25 C 1455.45 230.96 1455.46 166.67 1455.46 102.38 Z" />
<path fill="#606060" opacity="1.00" d=" M 1724.83 102.45 C 1767.66 102.29 1810.50 102.41 1853.34 102.38 C 1853.32 113.31 1853.33 124.24 1853.33 135.16 C 1823.61 135.17 1793.89 135.16 1764.17 135.17 C 1764.16 150.68 1764.16 166.20 1764.17 181.71 C 1791.61 181.71 1819.05 181.71 1846.49 181.71 C 1846.56 192.45 1846.56 203.20 1846.64 213.95 C 1819.14 213.93 1791.65 213.87 1764.17 213.83 C 1764.16 230.04 1764.17 246.25 1764.16 262.46 C 1793.97 262.46 1823.77 262.45 1853.58 262.46 C 1853.58 273.39 1853.59 284.32 1853.57 295.25 C 1810.67 295.24 1767.77 295.26 1724.88 295.25 C 1724.84 230.98 1724.93 166.71 1724.83 102.45 Z" />
<path fill="#606060" opacity="1.00" d=" M 1885.05 102.37 C 1905.14 102.39 1925.24 102.36 1945.34 102.39 C 1955.65 131.76 1966.03 161.12 1976.33 190.50 C 1982.30 209.97 1986.40 229.95 1990.77 249.83 C 1996.07 226.29 2000.55 202.44 2008.88 179.73 C 2017.79 153.95 2026.72 128.17 2035.62 102.39 C 2055.82 102.37 2076.01 102.37 2096.21 102.38 C 2096.20 166.67 2096.21 230.96 2096.21 295.25 C 2083.01 295.25 2069.82 295.25 2056.63 295.25 C 2056.62 266.84 2056.63 238.43 2056.63 210.03 C 2056.60 185.65 2057.70 161.28 2058.07 136.91 C 2052.38 159.42 2046.14 181.80 2039.13 203.94 C 2028.52 234.40 2017.81 264.81 2007.15 295.25 C 1996.13 295.25 1985.11 295.25 1974.09 295.25 C 1967.51 276.79 1960.93 258.33 1954.36 239.88 C 1947.91 221.52 1940.88 203.35 1935.64 184.60 C 1931.08 169.16 1926.82 153.62 1922.66 138.07 C 1923.11 163.38 1924.19 188.68 1924.08 214.00 C 1924.08 241.08 1924.08 268.17 1924.08 295.25 C 1911.06 295.25 1898.05 295.25 1885.04 295.25 C 1885.04 230.96 1885.04 166.66 1885.05 102.37 Z" />
<path fill="#606060" opacity="1.00" d=" M 2185.26 102.38 C 2202.42 102.38 2219.58 102.38 2236.74 102.38 C 2259.17 166.67 2281.58 230.96 2304.01 295.25 C 2289.44 295.25 2274.89 295.25 2260.33 295.25 C 2255.41 280.31 2250.45 265.39 2245.52 250.46 C 2222.79 250.46 2200.06 250.46 2177.34 250.46 C 2172.58 265.39 2167.83 280.32 2163.08 295.25 C 2148.60 295.25 2134.13 295.25 2119.66 295.25 C 2141.52 230.96 2163.39 166.67 2185.26 102.38 M 2210.60 133.32 C 2203.59 162.25 2196.67 191.25 2187.20 219.50 C 2203.22 219.50 2219.24 219.51 2235.26 219.50 C 2225.55 191.22 2218.11 162.24 2210.60 133.32 Z" />
<path fill="#606060" opacity="1.00" d=" M 2327.83 102.38 C 2348.55 102.37 2369.27 102.38 2389.99 102.38 C 2400.70 102.40 2411.56 101.99 2422.10 104.35 C 2436.98 107.36 2450.97 115.67 2459.75 128.20 C 2470.54 143.39 2473.19 163.13 2470.16 181.21 C 2467.71 195.94 2459.80 209.89 2447.68 218.77 C 2435.21 228.20 2419.35 231.99 2403.94 232.17 C 2391.66 232.26 2379.39 232.18 2367.13 232.21 C 2367.12 253.22 2367.13 274.23 2367.12 295.25 C 2354.02 295.25 2340.93 295.25 2327.84 295.25 C 2327.83 230.96 2327.84 166.67 2327.83 102.38 M 2367.12 135.04 C 2367.13 156.80 2367.12 178.57 2367.13 200.33 C 2377.07 200.32 2387.02 200.36 2396.98 200.32 C 2405.59 200.22 2414.64 198.07 2421.14 192.09 C 2428.15 185.86 2430.88 176.12 2430.75 166.99 C 2430.67 158.42 2428.08 149.34 2421.54 143.43 C 2414.93 137.36 2405.73 135.19 2396.98 135.06 C 2387.02 135.01 2377.07 135.05 2367.12 135.04 Z" />
<path fill="#606060" opacity="1.00" d=" M 3155.58 102.38 C 3168.45 102.37 3181.33 102.37 3194.21 102.38 C 3194.21 137.01 3194.20 171.64 3194.21 206.27 C 3196.57 206.74 3197.76 204.53 3199.11 203.03 C 3213.83 185.52 3228.75 168.18 3243.40 150.62 C 3258.35 150.44 3273.30 150.58 3288.25 150.55 C 3270.31 171.50 3252.36 192.44 3234.41 213.38 C 3253.26 240.67 3272.12 267.96 3290.97 295.25 C 3275.82 295.26 3260.68 295.24 3245.55 295.26 C 3232.08 275.63 3218.70 255.95 3205.27 236.30 C 3201.82 240.22 3198.34 244.09 3194.92 248.02 C 3193.79 249.03 3194.26 250.64 3194.19 251.95 C 3194.23 266.38 3194.19 280.82 3194.21 295.25 C 3181.33 295.25 3168.45 295.25 3155.59 295.25 C 3155.58 230.96 3155.59 166.67 3155.58 102.38 Z" />
<path fill="#606060" opacity="1.00" d=" M 2636.66 149.80 C 2657.18 146.62 2679.80 150.20 2696.08 163.83 C 2706.01 172.15 2712.31 184.21 2714.65 196.87 C 2702.66 199.11 2690.68 201.37 2678.70 203.61 C 2677.23 196.70 2674.05 189.95 2668.57 185.34 C 2661.10 178.94 2650.16 177.91 2641.03 180.84 C 2631.94 183.86 2625.74 192.25 2622.85 201.07 C 2619.53 210.98 2618.99 221.64 2619.98 231.99 C 2621.02 241.76 2623.94 251.86 2630.81 259.19 C 2641.16 270.55 2661.53 270.31 2671.50 258.55 C 2675.54 254.01 2677.81 248.18 2678.96 242.27 C 2690.94 244.46 2702.91 246.68 2714.89 248.88 C 2712.41 263.84 2704.04 277.80 2691.50 286.43 C 2681.42 293.47 2669.22 297.04 2657.03 297.83 C 2643.42 298.72 2629.35 296.99 2617.04 290.85 C 2605.67 285.21 2596.10 276.03 2590.00 264.89 C 2581.13 249.23 2579.00 230.59 2580.66 212.90 C 2582.04 197.61 2587.60 182.45 2597.77 170.80 C 2607.64 159.39 2621.79 152.02 2636.66 149.80 Z" />
<path fill="#606060" opacity="1.00" d=" M 2797.06 149.15 C 2814.18 147.55 2832.34 150.33 2846.72 160.25 C 2862.42 170.75 2872.23 188.54 2875.00 207.01 C 2877.80 225.62 2876.35 245.47 2867.75 262.46 C 2860.36 277.29 2847.01 289.05 2831.23 294.21 C 2817.01 298.83 2801.50 299.16 2786.93 296.01 C 2769.92 292.28 2754.63 281.26 2745.96 266.13 C 2736.37 249.95 2734.10 230.42 2736.01 211.97 C 2737.66 195.22 2744.49 178.59 2756.81 166.87 C 2767.58 156.41 2782.20 150.43 2797.06 149.15 M 2800.49 179.73 C 2792.07 180.84 2785.06 186.84 2781.15 194.16 C 2775.29 205.08 2774.27 217.89 2775.07 230.06 C 2776.00 241.08 2779.10 252.74 2787.35 260.62 C 2794.58 267.60 2805.79 268.98 2815.14 266.10 C 2823.34 263.50 2829.34 256.41 2832.52 248.64 C 2837.14 237.37 2837.64 224.86 2836.38 212.89 C 2835.02 202.75 2831.58 192.15 2823.54 185.34 C 2817.30 179.90 2808.47 178.44 2800.49 179.73 Z" />
<path fill="#606060" opacity="1.00" d=" M 2991.32 244.98 C 2991.17 213.50 2991.28 182.02 2991.26 150.54 C 3004.14 150.55 3017.03 150.54 3029.92 150.54 C 3029.93 179.03 3029.89 207.52 3029.93 236.00 C 3029.86 243.94 3032.03 252.39 3037.98 257.99 C 3044.90 264.75 3055.63 265.73 3064.63 263.39 C 3072.39 261.38 3078.80 255.35 3081.59 247.87 C 3084.11 241.57 3083.93 234.67 3083.87 228.00 C 3083.87 202.18 3083.87 176.36 3083.88 150.54 C 3096.80 150.53 3109.73 150.55 3122.66 150.54 C 3122.67 198.78 3122.67 247.01 3122.66 295.25 C 3110.46 295.25 3098.27 295.25 3086.09 295.25 C 3085.95 285.17 3085.75 275.10 3085.71 265.02 C 3082.27 273.42 3077.35 281.40 3070.31 287.24 C 3064.08 292.50 3056.21 295.64 3048.15 296.56 C 3035.54 298.10 3022.05 295.93 3011.56 288.45 C 2997.65 278.79 2991.47 261.38 2991.32 244.98 Z" />
<path fill="#606060" opacity="1.00" d=" M 2520.51 253.72 C 2527.63 252.33 2535.63 253.90 2540.92 259.11 C 2546.16 263.85 2548.54 271.20 2547.71 278.15 C 2547.10 285.34 2542.42 291.86 2536.09 295.17 C 2531.51 297.57 2526.13 297.97 2521.10 297.22 C 2511.08 295.61 2503.18 286.11 2503.19 276.00 C 2502.70 265.71 2510.32 255.65 2520.51 253.72 Z" />
<path fill="#606060" opacity="1.00" d=" M 2925.50 253.74 C 2933.57 252.03 2942.69 254.51 2947.91 261.14 C 2954.98 269.45 2954.62 283.20 2946.81 290.93 C 2938.49 299.90 2922.48 299.85 2914.29 290.72 C 2908.30 284.61 2906.69 274.96 2909.84 267.09 C 2912.47 260.45 2918.45 255.14 2925.50 253.74 Z" />
</g>
</svg>
